<?xml version="1.0" encoding="UTF-8" standalone="no"?>
<svg
   version="1.1"
   id="Layer_1"
   x="0px"
   y="0px"
   viewBox="0 0 122.88 79.92"
   style="enable-background:new 0 0 122.88 79.92"
   xml:space="preserve"
   sodipodi:docname="favicon.svg"
   inkscape:version="1.2.1 (9c6d41e410, 2022-07-14)"
   xmlns:inkscape="http://www.inkscape.org/namespaces/inkscape"
   xmlns:sodipodi="http://sodipodi.sourceforge.net/DTD/sodipodi-0.dtd"
   xmlns="http://www.w3.org/2000/svg"
   xmlns:svg="http://www.w3.org/2000/svg"><defs
     id="defs76" /><sodipodi:namedview
     id="namedview74"
     pagecolor="#505050"
     bordercolor="#eeeeee"
     borderopacity="1"
     inkscape:showpageshadow="0"
     inkscape:pageopacity="0"
     inkscape:pagecheckerboard="0"
     inkscape:deskcolor="#505050"
     showgrid="false"
     inkscape:zoom="10.898399"
     inkscape:cx="61.5228"
     inkscape:cy="40.005877"
     inkscape:window-width="1914"
     inkscape:window-height="1039"
     inkscape:window-x="0"
     inkscape:window-y="35"
     inkscape:window-maximized="1"
     inkscape:current-layer="g71" /><style
     type="text/css"
     id="style67">.st0{fill-rule:evenodd;clip-rule:evenodd;}</style><g
     id="g71"><path
       class="st0"
       d="M23.35,72.21c4.04-4.11,8.82-8.28,12.37-13.68h51.43c3.56,5.39,8.34,9.57,12.37,13.68 c30.95,31.52,28.87-42.32,7-64.5h-1.68C102.09,3.11,96.72,0,90.55,0c-6.17,0-11.53,3.11-14.28,7.71H46.61 C43.86,3.11,38.49,0,32.32,0c-6.17,0-11.53,3.11-14.29,7.71h-1.68C-5.52,29.89-7.6,103.72,23.35,72.21L23.35,72.21z M29.85,12.84 h11.11v8.85l8.85,0V32.8h-8.85v8.85H29.85V32.8H21V21.69h8.85L29.85,12.84L29.85,12.84L29.85,12.84z M83.16,36.9 c2.69,0,4.87,2.18,4.87,4.87c0,2.69-2.18,4.88-4.87,4.88s-4.87-2.18-4.87-4.88C78.29,39.08,80.47,36.9,83.16,36.9L83.16,36.9z M85.82,15.21c3.9,0,7.06,3.16,7.06,7.05c0,3.9-3.16,7.05-7.06,7.05c-3.9,0-7.05-3.16-7.05-7.05 C78.77,18.37,81.92,15.21,85.82,15.21L85.82,15.21z M104.04,26.11c2.69,0,4.87,2.18,4.87,4.87c0,2.69-2.18,4.87-4.87,4.87 c-2.69,0-4.88-2.18-4.88-4.87C99.16,28.29,101.35,26.11,104.04,26.11L104.04,26.11z"
       id="path69"
       style="stroke-width:0;stroke-dasharray:none;fill:#ede9e9;fill-opacity:1" /></g></svg>
